<svg width="60" height="52" viewBox="0 0 45 36" fill="none" xmlns="http://www.w3.org/2000/svg">
	<path d="M44.4412 12.4798C44.4366 9.88709 43.5938 7.36607 42.0396 5.29616C40.4855 3.22625 38.3041 1.71947 35.8238 1.00261C33.3435 0.285755 30.6986 0.397617 28.287 1.32136C25.8755 2.24511 23.8279 3.93074 22.4525 6.12455C21.3908 4.41779 19.9178 3.00761 18.1696 2.02454C16.4215 1.04146 14.4547 0.517253 12.4513 0.500419C10.448 0.483584 8.47276 0.97467 6.70848 1.92823C4.9442 2.88179 3.44786 4.26701 2.35794 5.9557C1.26803 7.64439 0.619754 9.58197 0.473113 11.5892C0.326472 13.5963 0.686205 15.6082 1.51902 17.4387C2.35183 19.2691 3.63082 20.859 5.23761 22.0611C6.8444 23.2632 8.72708 24.0387 10.7114 24.3158C9.7461 25.8853 9.40534 27.7627 9.75712 29.5734C10.1089 31.3841 11.1274 32.995 12.6093 34.0847C14.0912 35.1743 15.9276 35.6626 17.7521 35.4521C19.5766 35.2416 21.255 34.3478 22.4525 32.949C23.6499 34.3478 25.3283 35.2416 27.1528 35.4521C28.9773 35.6626 30.8137 35.1743 32.2956 34.0847C33.7776 32.995 34.796 31.3841 35.1478 29.5734C35.4996 27.7627 35.1588 25.8853 34.1935 24.3158C37.0342 23.9135 39.6349 22.4947 41.5176 20.3202C43.4002 18.1457 44.4384 15.3617 44.4412 12.4798ZM4.12856 12.4798C4.12856 10.2829 4.9973 8.17596 6.54368 6.62252C8.09006 5.06908 10.1874 4.19636 12.3743 4.19636C14.5612 4.19636 16.6586 5.06908 18.2049 6.62252C19.7513 8.17596 20.6201 10.2829 20.6201 12.4798V20.7632H12.3743C10.1874 20.7632 8.09006 19.8905 6.54368 18.337C4.9973 16.7836 4.12856 14.6767 4.12856 12.4798ZM16.9553 31.8077C15.9833 31.8077 15.0512 31.4198 14.3639 30.7294C13.6766 30.039 13.2905 29.1026 13.2905 28.1262C13.2905 27.1498 13.6766 26.2134 14.3639 25.523C15.0512 24.8326 15.9833 24.4447 16.9553 24.4447H20.6201V28.1262C20.6201 29.1026 20.234 30.039 19.5467 30.7294C18.8594 31.4198 17.9273 31.8077 16.9553 31.8077ZM27.9496 31.8077C26.9777 31.8077 26.0455 31.4198 25.3582 30.7294C24.671 30.039 24.2849 29.1026 24.2849 28.1262V24.4447H27.9496C28.9216 24.4447 29.8538 24.8326 30.541 25.523C31.2283 26.2134 31.6144 27.1498 31.6144 28.1262C31.6144 29.1026 31.2283 30.039 30.541 30.7294C29.8538 31.4198 28.9216 31.8077 27.9496 31.8077ZM32.5306 20.7632H24.2849V12.4798C24.2849 10.8415 24.7685 9.23995 25.6745 7.87775C26.5806 6.51555 27.8684 5.45385 29.3751 4.8269C30.8818 4.19995 32.5398 4.03591 34.1393 4.35552C35.7388 4.67514 37.2081 5.46406 38.3613 6.62252C39.5144 7.78097 40.2998 9.25693 40.6179 10.8638C40.9361 12.4706 40.7728 14.1361 40.1487 15.6497C39.5246 17.1633 38.4677 18.457 37.1117 19.3672C35.7557 20.2774 34.1615 20.7632 32.5306 20.7632Z" fill="#4B9B9B"/>
</svg>
